<?xml version="1.0" encoding="UTF-8"?>
<svg width="204px" height="137px" viewBox="0 0 204 137" version="1.1" xmlns="http://www.w3.org/2000/svg" xmlns:xlink="http://www.w3.org/1999/xlink">
    <!-- Generator: Sketch 52.6 (67491) - http://www.bohemiancoding.com/sketch -->
    <title>networks</title>
    <desc>Created with Sketch.</desc>
    <defs>
        <filter x="-28.8%" y="-500.0%" width="157.7%" height="1100.0%" filterUnits="objectBoundingBox" id="filter-1">
            <feGaussianBlur stdDeviation="5" in="SourceGraphic"></feGaussianBlur>
        </filter>
        <filter x="-28.8%" y="-500.0%" width="157.7%" height="1100.0%" filterUnits="objectBoundingBox" id="filter-2">
            <feGaussianBlur stdDeviation="5" in="SourceGraphic"></feGaussianBlur>
        </filter>
        <radialGradient cx="20.4994381%" cy="87.3920768%" fx="20.4994381%" fy="87.3920768%" r="110.2824%" id="radialGradient-3">
            <stop stop-color="#FAE100" offset="0%"></stop>
            <stop stop-color="#FADC04" offset="5.44%"></stop>
            <stop stop-color="#FBCE0E" offset="11.67%"></stop>
            <stop stop-color="#FCB720" offset="18.29%"></stop>
            <stop stop-color="#FE9838" offset="25.14%"></stop>
            <stop stop-color="#FF7950" offset="30.54%"></stop>
            <stop stop-color="#FF1C74" offset="49.22%"></stop>
            <stop stop-color="#6C1CD1" offset="100%"></stop>
        </radialGradient>
        <linearGradient x1="36.8759009%" y1="42.6177546%" x2="-154.039644%" y2="-64.7722395%" id="linearGradient-4">
            <stop stop-color="#A1B5D8" stop-opacity="0" offset="0%"></stop>
            <stop stop-color="#90A2BD" stop-opacity="0.309804" offset="30.94%"></stop>
            <stop stop-color="#7C8B9C" stop-opacity="0.756863" offset="75.54%"></stop>
            <stop stop-color="#748290" offset="100%"></stop>
        </linearGradient>
        <linearGradient x1="49.9996672%" y1="41.2557065%" x2="49.9996672%" y2="119.349194%" id="linearGradient-5">
            <stop stop-color="#FAE100" stop-opacity="0" offset="0%"></stop>
            <stop stop-color="#FCA800" stop-opacity="0.305882" offset="30.68%"></stop>
            <stop stop-color="#FE7300" stop-opacity="0.627451" offset="62.75%"></stop>
            <stop stop-color="#FF5200" stop-opacity="0.866667" offset="86.85%"></stop>
            <stop stop-color="#FF4500" offset="100%"></stop>
        </linearGradient>
        <linearGradient x1="31.6097795%" y1="31.0673994%" x2="1.2163078%" y2="0.511005843%" id="linearGradient-6">
            <stop stop-color="#833AB4" stop-opacity="0" offset="0%"></stop>
            <stop stop-color="#833AB4" offset="100%"></stop>
        </linearGradient>
        <linearGradient x1="58.2371646%" y1="88.6532424%" x2="41.8417883%" y2="11.2586181%" id="linearGradient-7">
            <stop stop-color="#833AB4" stop-opacity="0" offset="0%"></stop>
            <stop stop-color="#833AB4" offset="100%"></stop>
        </linearGradient>
        <linearGradient x1="60.5048093%" y1="60.5047823%" x2="-15.9715487%" y2="-15.9716059%" id="linearGradient-8">
            <stop stop-color="#833AB4" stop-opacity="0" offset="0%"></stop>
            <stop stop-color="#833AB4" offset="100%"></stop>
        </linearGradient>
        <linearGradient x1="37.5668609%" y1="33.2168435%" x2="-7.18046267%" y2="-6.34929376%" id="linearGradient-9">
            <stop stop-color="#833AB4" stop-opacity="0" offset="0%"></stop>
            <stop stop-color="#833AB4" offset="100%"></stop>
        </linearGradient>
        <linearGradient x1="81.5887586%" y1="18.1912264%" x2="17.2310239%" y2="83.4524421%" id="linearGradient-10">
            <stop stop-color="#833AB4" offset="0%"></stop>
            <stop stop-color="#9C3495" offset="9.22%"></stop>
            <stop stop-color="#DC2546" offset="29.27%"></stop>
            <stop stop-color="#FD1D1D" offset="39.2%"></stop>
            <stop stop-color="#FC6831" offset="55.89%"></stop>
            <stop stop-color="#FC9B40" offset="68.87%"></stop>
            <stop stop-color="#FCAF45" offset="75.21%"></stop>
            <stop stop-color="#FDB750" offset="78.06%"></stop>
            <stop stop-color="#FECB6A" offset="86.56%"></stop>
            <stop stop-color="#FFD87A" offset="94.15%"></stop>
            <stop stop-color="#FFDC80" offset="100%"></stop>
        </linearGradient>
        <linearGradient x1="33.2019533%" y1="14.05981%" x2="58.4948073%" y2="68.1747744%" id="linearGradient-11">
            <stop stop-color="#00C3FF" offset="0%"></stop>
            <stop stop-color="#00B0ED" offset="100%"></stop>
        </linearGradient>
        <linearGradient x1="73.8335045%" y1="62.7852419%" x2="-89.8948936%" y2="-25.0447696%" id="linearGradient-12">
            <stop stop-color="#00B0ED" stop-opacity="0" offset="0%"></stop>
            <stop stop-color="#00A2CE" offset="100%"></stop>
        </linearGradient>
        <linearGradient x1="49.9996672%" y1="26.9860983%" x2="49.9996672%" y2="92.6337225%" id="linearGradient-13">
            <stop stop-color="#00B0ED" stop-opacity="0" offset="0%"></stop>
            <stop stop-color="#00A2CE" offset="100%"></stop>
        </linearGradient>
        <linearGradient x1="94.5561774%" y1="92.2327448%" x2="34.2372875%" y2="27.3159985%" id="linearGradient-14">
            <stop stop-color="#00B0ED" stop-opacity="0" offset="0%"></stop>
            <stop stop-color="#00A2CE" offset="100%"></stop>
        </linearGradient>
        <linearGradient x1="33.2019533%" y1="14.05981%" x2="58.4948073%" y2="68.1747744%" id="linearGradient-15">
            <stop stop-color="#3457A0" offset="0%"></stop>
            <stop stop-color="#3B5998" offset="100%"></stop>
        </linearGradient>
        <linearGradient x1="71.3773671%" y1="64.688365%" x2="-27.1348331%" y2="-2.99906217%" id="linearGradient-16">
            <stop stop-color="#3457A0" stop-opacity="0" offset="0%"></stop>
            <stop stop-color="#1F3F77" offset="100%"></stop>
        </linearGradient>
        <linearGradient x1="49.9996672%" y1="17.6803361%" x2="49.9996672%" y2="85.4754892%" id="linearGradient-17">
            <stop stop-color="#3457A0" stop-opacity="0" offset="0%"></stop>
            <stop stop-color="#1F3F77" offset="100%"></stop>
        </linearGradient>
        <linearGradient x1="125.950759%" y1="79.1081241%" x2="4.25678772%" y2="37.1141965%" id="linearGradient-18">
            <stop stop-color="#3457A0" stop-opacity="0" offset="0%"></stop>
            <stop stop-color="#2A4C8D" stop-opacity="0.32549" offset="32.51%"></stop>
            <stop stop-color="#22427D" stop-opacity="0.705882" offset="70.45%"></stop>
            <stop stop-color="#1F3F77" offset="100%"></stop>
        </linearGradient>
        <filter x="-28.8%" y="-500.0%" width="157.7%" height="1100.0%" filterUnits="objectBoundingBox" id="filter-19">
            <feGaussianBlur stdDeviation="5" in="SourceGraphic"></feGaussianBlur>
        </filter>
    </defs>
    <g id="networks" stroke="none" stroke-width="1" fill="none" fill-rule="evenodd">
        <ellipse id="Oval-Copy" fill-opacity="0.78" fill="#000000" filter="url(#filter-1)" cx="148" cy="100.5" rx="26" ry="1.5"></ellipse>
        <ellipse id="Oval-Copy-2" fill-opacity="0.78" fill="#000000" filter="url(#filter-2)" cx="53" cy="100.5" rx="26" ry="1.5"></ellipse>
        <g id="instagram" transform="translate(113.000000, 14.000000)">
            <path d="M68.8015747,12.5204468 C68.164444,6.55075066 63.4497834,1.83502197 57.4795532,1.19842529 C42.5077819,-0.399475098 27.4922181,-0.399475098 12.5209808,1.19842529 C6.55075066,1.835556 1.835556,6.55075066 1.19842529,12.5204468 C-0.399475098,27.4916839 -0.399475098,42.5077819 1.19842529,57.4790192 C1.835556,63.4492493 6.55075066,68.164444 12.5204468,68.8015747 C27.4916839,70.3994751 42.5077819,70.3994751 57.4795532,68.8015747 C63.4497834,68.164444 68.164444,63.4492493 68.8015747,57.4790192 C70.3994751,42.5077819 70.3994751,27.4922181 68.8015747,12.5204468 Z" id="Path" fill="url(#radialGradient-3)"></path>
            <path d="M64.994278,15.0524139 C64.429245,9.75509637 60.2454377,5.57075504 54.9475861,5.00518799 C41.6623688,3.58779914 28.3376312,3.58779914 15.0524139,5.00518799 C9.75509637,5.57075504 5.57075504,9.75509637 5.00518799,15.0524139 C3.58779914,28.3376312 3.58779914,41.6623688 5.00518799,54.9470521 C5.57075504,60.2449036 9.75509637,64.429245 15.0524139,64.994278 C28.3376312,66.4122009 41.6623688,66.4122009 54.9470521,64.994278 C60.2449036,64.429245 64.429245,60.2449036 64.994278,54.9470521 C66.4122009,41.6623688 66.4122009,28.3376312 64.994278,15.0524139 Z" id="Path" fill="url(#linearGradient-4)"></path>
            <path d="M1.04888916,56.0279847 C1.09695441,56.5118408 1.14662174,56.995697 1.19842529,57.4795532 C1.835556,63.4492493 6.55075066,68.164444 12.5209808,68.8015747 C27.4922181,70.3994751 42.5083161,70.3994751 57.4795532,68.8015747 C63.4497834,68.164444 68.164444,63.4492493 68.8015747,57.4795532 C68.8533783,56.995697 68.9030456,56.5118408 68.9516449,56.0279847 L1.04888916,56.0279847 Z" id="Path" fill="url(#linearGradient-5)"></path>
            <path d="M68.8015747,57.4790192 C69.6603394,49.4345093 70.05661,41.377182 69.9925231,33.3209229 L53.9921569,17.3205566 C51.9931794,15.0385285 49.0734863,13.6141968 45.6427002,13.4908294 C38.587265,13.236618 31.5093994,13.2494354 24.4528962,13.4918976 C18.5921478,13.6937713 14.4937897,17.6329803 13.4427643,23.4226989 C13.2574463,24.4448853 13.1463623,25.480423 13.0005646,26.5100861 L13.0005646,43.4835052 C13.0812073,44.0335846 13.1997681,44.5809937 13.236618,45.1342773 C13.4716034,48.6558532 14.9188996,51.6722106 17.2361755,53.7128449 L33.5185241,69.9946595 C41.5090942,70.0507355 49.5001984,69.6533966 57.4795532,68.8015747 C63.4497834,68.164444 68.164444,63.4492493 68.8015747,57.4790192 Z" id="Path" fill="url(#linearGradient-6)"></path>
            <path d="M68.8015747,57.4795532 C68.164978,63.4487152 63.4487152,68.164978 57.4795532,68.8015747 C49.5012664,69.6528626 41.5085602,70.0507355 33.5190583,69.9946595 L17.2612762,53.7368774 C19.1459655,55.3865814 21.6026305,56.3911439 24.4534302,56.4984894 C31.5083314,56.763382 38.5877991,56.7564391 45.6427002,56.5022279 C52.0236206,56.271515 56.6410827,51.5488434 56.8402863,45.167923 C57.0528412,38.392868 57.0528412,31.6001891 56.8402863,24.8251343 C56.7494964,21.8814087 55.716095,19.2912292 54.0028382,17.3312378 L69.9930573,33.3214569 C70.056076,41.3766479 69.6598053,49.4350433 68.8015747,57.4795532 Z" id="Path" fill="url(#linearGradient-7)"></path>
            <path d="M43.259735,27.4201203 C41.210022,25.1882935 38.2689666,23.7879945 35,23.7879945 C28.8081361,23.7879945 23.7879945,28.8081361 23.7879945,35 C23.7879945,38.2689666 25.1882935,41.210022 27.4201203,43.259735 L53.3609009,69.2005158 C54.733963,69.0808869 56.1070251,68.9479066 57.4790192,68.8015747 C63.4492493,68.164444 68.164444,63.4492493 68.8015747,57.4790192 C68.9479066,56.1070251 69.0808869,54.733963 69.2005158,53.3609009 L43.259735,27.4201203 Z" id="Path" fill="url(#linearGradient-8)"></path>
            <path d="M69.8643493,42.5403595 L48.9869691,21.6635132 C48.4999085,21.0242463 47.7324676,20.6092835 46.8667603,20.6092835 C45.3938294,20.6092835 44.1991424,21.8034362 44.1991424,23.2769012 C44.1991424,24.1426087 44.6141052,24.9100495 45.2533722,25.39711 L69.4910431,49.6353149 C69.6555329,47.2710418 69.7799683,44.9057007 69.8643493,42.5403595 Z" id="Path" fill="url(#linearGradient-9)"></path>
            <path d="M13.0005646,26.5100861 C13.1463623,25.480423 13.2574463,24.4448853 13.4427643,23.4226989 C14.4932555,17.6329803 18.5921478,13.6937713 24.4528962,13.4918976 C31.5093994,13.2494354 38.587265,13.236618 45.6427002,13.4908294 C52.0214844,13.7204743 56.6410827,18.4436798 56.8402863,24.8246003 C57.0523071,31.6001891 57.0523071,38.392334 56.8402863,45.167923 C56.6410827,51.5488434 52.0230866,56.271515 45.6432342,56.5016937 C38.5877991,56.7564391 31.5083314,56.762848 24.4534302,56.4979554 C18.0735778,56.2581634 13.6633301,51.5242767 13.236618,45.1337433 C13.1997681,44.5809937 13.0812073,44.0330505 13.0005646,43.4829712 C13.0005646,37.8251647 13.0005646,32.1673584 13.0005646,26.5100861 Z M35.0058747,52.7200317 C38.234787,52.7200317 41.4669037,52.8166961 44.6915436,52.6976013 C49.7474671,52.5101471 52.8572845,49.4927215 52.9753112,44.4416046 C53.1216431,38.1477357 53.1216431,31.8453216 52.9753112,25.5509186 C52.8572845,20.5008698 49.7453307,17.4129486 44.6915436,17.305603 C38.2769775,17.1699525 31.8554687,17.1710205 25.4409027,17.305603 C20.4255677,17.4108123 17.3066712,20.4362487 17.1704865,25.4307555 C16.9974518,31.8041992 16.9974518,38.1888581 17.1704865,44.5623016 C17.3066712,49.5562744 20.4255677,52.5117493 25.4414368,52.6976012 C28.6254883,52.8161621 31.8175506,52.7200317 35.0058747,52.7200317 Z" id="Shape" fill="url(#linearGradient-10)" fill-rule="nonzero"></path>
            <g id="Group" transform="translate(12.988281, 13.261719)" fill="#FFFFFF">
                <path d="M0.0122833594,13.2483673 C0.158081055,12.2187043 0.269165039,11.1831665 0.454483066,10.1609802 C1.5049743,4.37126156 5.60386654,0.432052578 11.4646149,0.230178867 C18.5211182,-0.0122833594 25.5989837,-0.0251007422 32.6544189,0.229110684 C39.0332031,0.458755527 43.6528014,5.18196109 43.852005,11.5628815 C44.0640259,18.3384704 44.0640259,25.1306152 43.852005,31.9062043 C43.6528014,38.2871247 39.0348053,43.0097962 32.654953,43.2399749 C25.5995179,43.4947204 18.5200501,43.5011292 11.4651489,43.2362366 C5.08529656,42.9964447 0.675048828,38.2625579 0.248336758,31.8720246 C0.211486816,31.3192749 0.0929260937,30.7713317 0.0122833594,30.2212524 C0.0122833594,24.563446 0.0122833594,18.9056396 0.0122833594,13.2483673 Z M22.0175934,39.458313 C25.2465057,39.458313 28.4786224,39.5549774 31.7032624,39.4358825 C36.7591859,39.2484284 39.8690033,36.2310028 39.98703,31.1798859 C40.1333618,24.8860169 40.1333618,18.5836029 39.98703,12.2891999 C39.8690033,7.23915104 36.7570495,4.15122982 31.7032624,4.04388428 C25.2886963,3.90823371 18.8671875,3.90930176 12.4526214,4.04388428 C7.43728645,4.14909359 4.31838996,7.17452996 4.18220523,12.1690368 C4.00917057,18.5424805 4.00917057,24.9271393 4.18220523,31.3005829 C4.31838996,36.2945557 7.43728645,39.2500306 12.4531556,39.4358825 C15.637207,39.5544434 18.8292694,39.458313 22.0175934,39.458313 Z" id="Shape" fill-rule="nonzero"></path>
                <path d="M22.0117188,10.5268097 C15.8198548,10.5268097 10.7997132,15.5464173 10.7997132,21.7382812 C10.7997132,27.9306794 15.8198548,32.9502868 22.0117188,32.9502868 C28.2041169,32.9502868 33.2237243,27.9306794 33.2237243,21.7382812 C33.2237243,15.5464173 28.2041169,10.5268097 22.0117188,10.5268097 Z M22.0117188,29.0901185 C17.9512787,29.0901185 14.6598815,25.7987213 14.6598815,21.7382812 C14.6598815,17.6778412 17.9512787,14.386444 22.0117188,14.386444 C26.0721588,14.386444 29.363556,17.6778412 29.363556,21.7382812 C29.363556,25.7987213 26.0721588,29.0901185 22.0117188,29.0901185 Z" id="Shape" fill-rule="nonzero"></path>
                <path d="M36.5455628,10.0151825 C36.5455628,11.4881134 35.3514098,12.6822663 33.878479,12.6822663 C32.4055482,12.6822663 31.2108612,11.4881134 31.2108612,10.0151825 C31.2108612,8.54171746 32.4055482,7.34756477 33.878479,7.34756477 C35.3514098,7.34756477 36.5455628,8.54171746 36.5455628,10.0151825 Z" id="Path"></path>
            </g>
        </g>
        <g id="twitter" transform="translate(18.000000, 14.000000)">
            <path d="M57.4795532,68.8015747 C42.5083161,70.3994751 27.4916839,70.3994751 12.5204468,68.8015747 C6.55075066,68.164444 1.835556,63.4492493 1.19842529,57.4790192 C-0.399475098,42.5077819 -0.399475098,27.4916839 1.19842529,12.5204468 C1.835556,6.55075066 6.55075066,1.835556 12.5204468,1.19842529 C27.4916839,-0.399475098 42.5077819,-0.399475098 57.4790192,1.19842529 C63.4492493,1.835556 68.164444,6.55075066 68.8015747,12.5204468 C70.3994751,27.4916839 70.3994751,42.5077819 68.8015747,57.4790192 C68.164444,63.4492493 63.4497834,68.164444 57.4795532,68.8015747 Z" id="Path" fill="url(#linearGradient-11)"></path>
            <path d="M64.994278,15.0524139 C64.429245,9.75509637 60.2454377,5.57075504 54.9475861,5.00518799 C41.6623688,3.58779914 28.3376312,3.58779914 15.0524139,5.00518799 C9.75509637,5.57075504 5.57075504,9.75509637 5.00518799,15.0524139 C3.58779914,28.3376312 3.58779914,41.6623688 5.00518799,54.9470521 C5.57075504,60.2449036 9.75509637,64.429245 15.0524139,64.994278 C28.3376312,66.4122009 41.6623688,66.4122009 54.9470521,64.994278 C60.2449036,64.429245 64.429245,60.2449036 64.994278,54.9470521 C66.4122009,41.6623688 66.4122009,28.3376312 64.994278,15.0524139 Z" id="Path" fill="url(#linearGradient-12)"></path>
            <path d="M1.04888916,56.0279847 C1.09695441,56.5118408 1.14662174,56.995697 1.19842529,57.4795532 C1.835556,63.4492493 6.55075066,68.164444 12.5209808,68.8015747 C27.4922181,70.3994751 42.5083161,70.3994751 57.4795532,68.8015747 C63.4497834,68.164444 68.164444,63.4492493 68.8015747,57.4795532 C68.8533783,56.995697 68.9030456,56.5118408 68.9516449,56.0279847 L1.04888916,56.0279847 Z" id="Path" fill="url(#linearGradient-13)"></path>
            <path d="M69.9850464,32.5401305 L55.4549408,18.0105591 C53.8265991,18.9414215 52.3915863,19.4578552 51.3106537,19.74411 C50.7028962,19.9069977 50.2067565,19.9956512 49.8500062,20.0442505 C48.2115173,18.3646393 45.9236146,17.3216247 43.3911133,17.3216247 C38.4083558,17.3216247 34.3682098,21.3612366 34.3682098,26.3450622 C34.3682098,26.5250397 34.3730163,26.7028809 34.3847656,26.880188 C34.4087982,27.3122406 34.4638062,27.7368164 34.5487213,28.1496429 C32.4685669,28.1186676 25.7073975,27.5632477 19.2591859,22.0357513 C19.2586517,22.0357513 19.2586517,22.0352173 19.2586517,22.0352173 L19.2581177,22.0352173 L16.2171937,18.9937591 C16.2171937,18.9937591 12.6496888,25.2203369 17.8946686,29.9451447 C18.1248473,30.2020264 18.3779907,30.4557038 18.6551667,30.7051087 C18.677063,30.7296753 18.7000275,30.7537079 18.7219238,30.7782746 C18.0335236,30.7318115 15.9629821,30.5256654 14.764557,29.6791839 C14.764557,29.6791839 14.5236969,33.4848786 17.694397,36.2865448 L20.2546693,38.8687134 C19.474945,38.9333343 18.6124421,38.9178467 18.0126953,38.6550903 C18.0126953,38.6550903 18.5435485,40.9093475 20.5953979,42.7133942 L24.1821289,46.3188171 C22.0304108,47.5722503 18.2637025,49.1407777 13.3055114,48.7402344 L35.0635529,70 C42.5392913,69.9978638 50.0150299,69.5983887 57.4795532,68.8015747 C63.4497834,68.164444 68.164978,63.4492493 68.8021087,57.4795532 C69.6881104,49.1749573 70.0817108,40.8564759 69.9850464,32.5401305 Z" id="Path" fill="url(#linearGradient-14)"></path>
            <path d="M56.6950226,21.5150452 C55.1462555,22.3252106 52.8134919,22.699585 52.0401764,22.8074645 C52.0337677,22.7700806 52.027359,22.7342987 52.0209504,22.6985169 C54.6501159,21.0723114 55.4549408,18.0105591 55.4549408,18.0105591 C53.8265991,18.9414215 52.3915863,19.4578552 51.3106537,19.74411 C50.7028962,19.9069977 50.2067565,19.9951172 49.8500062,20.0442505 C48.2115173,18.3641052 45.9236146,17.3216247 43.3911133,17.3216247 C38.4083558,17.3216247 34.3682098,21.3607025 34.3682098,26.3450622 C34.3682098,26.5245055 34.3730163,26.7028809 34.3847656,26.879654 C34.4087982,27.3117065 34.4638062,27.7362824 34.5487213,28.1491089 C32.1369171,28.113327 23.4312438,27.3736572 16.2171937,18.9937591 C16.2171937,18.9937591 12.2000122,26.0027313 18.9537048,30.7905579 C18.9537048,30.7905579 16.2171937,30.7051087 14.764557,29.6791839 C14.764557,29.6791839 14.3373109,36.4328766 22.11586,38.5691071 C22.11586,38.5691071 19.3809509,39.2537689 18.0121613,38.6550903 C18.0121613,38.6550903 19.3804168,44.4677734 26.2190247,44.8960876 C26.2190247,44.8960876 21.3142396,49.386444 13.3049774,48.7402344 C17.2441864,51.2342835 21.9145202,52.6778412 26.9218444,52.6778412 C41.0012054,52.6778412 52.4150848,41.2644958 52.4150848,27.1851349 C52.4150848,27.00943 52.4134827,26.8337249 52.4097443,26.65802 C52.4134827,26.5538787 52.4150848,26.4502716 52.4150848,26.3450622 C52.4150848,26.2718963 52.4134827,26.1987305 52.4124146,26.1255646 C55.0154114,24.3909455 56.6950226,21.5150452 56.6950226,21.5150452 Z" id="Path" fill="#FFFFFF"></path>
        </g>
        <g id="facebook" transform="translate(67.000000, 37.000000)">
            <path d="M57.4795532,68.8015747 C42.5083161,70.3994751 27.4916839,70.3994751 12.5204468,68.8015747 C6.55075066,68.164444 1.835556,63.4492493 1.19842529,57.4790192 C-0.399475098,42.5077819 -0.399475098,27.4916839 1.19842529,12.5204468 C1.835556,6.55075066 6.55075066,1.835556 12.5204468,1.19842529 C27.4916839,-0.399475098 42.5077819,-0.399475098 57.4790192,1.19842529 C63.4492493,1.835556 68.164444,6.55075066 68.8015747,12.5204468 C70.3994751,27.4916839 70.3994751,42.5077819 68.8015747,57.4790192 C68.164444,63.4492493 63.4497834,68.164444 57.4795532,68.8015747 Z" id="Path" fill="url(#linearGradient-15)"></path>
            <path d="M64.994278,15.0524139 C64.429245,9.75509637 60.2454377,5.57075504 54.9475861,5.00518799 C41.6623688,3.58779914 28.3376312,3.58779914 15.0524139,5.00518799 C9.75509637,5.57075504 5.57075504,9.75509637 5.00518799,15.0524139 C3.58779914,28.3376312 3.58779914,41.6623688 5.00518799,54.9470521 C5.57075504,60.2449036 9.75509637,64.429245 15.0524139,64.994278 C28.3376312,66.4122009 41.6623688,66.4122009 54.9470521,64.994278 C60.2449036,64.429245 64.429245,60.2449036 64.994278,54.9470521 C66.4122009,41.6623688 66.4122009,28.3376312 64.994278,15.0524139 Z" id="Path" fill="url(#linearGradient-16)"></path>
            <path d="M1.04888916,56.0279847 C1.09695441,56.5118408 1.14662174,56.995697 1.19842529,57.4795532 C1.835556,63.4492493 6.55075066,68.164444 12.5209808,68.8015747 C27.4922181,70.3994751 42.5083161,70.3994751 57.4795532,68.8015747 C63.4497834,68.164444 68.164444,63.4492493 68.8015747,57.4795532 C68.8533783,56.995697 68.9030456,56.5118408 68.9516449,56.0279847 L1.04888916,56.0279847 Z" id="Path" fill="url(#linearGradient-17)"></path>
            <path d="M47.0606232,11.6579437 C40.9616852,11.6579437 36.0179138,16.6022492 36.0179138,22.7011872 L36.0179138,30.949707 L30.0749206,30.949707 L30.0749206,41.1624909 L36.0179138,46.485443 L36.0179138,69.9967956 C43.175354,69.9620819 50.3322601,69.564209 57.4795532,68.8015747 C63.4497834,68.164444 68.164444,63.4492493 68.8015747,57.4790192 C69.990387,46.3396454 70.2942658,35.1757049 69.7137451,24.0235138 L57.3481751,11.6579437 L47.0606232,11.6579437 Z" id="Path" fill="url(#linearGradient-18)"></path>
            <path d="M36.0179138,69.9967956 C40.0965119,69.9770355 44.1745758,69.8387145 48.2510376,69.5823669 L48.2510376,41.1624909 L56.3676452,41.1624909 L57.3481751,30.949707 L48.2510376,30.949707 L48.2510376,24.4646454 C48.2510376,23.0323029 49.4120788,21.8712616 50.8444214,21.8712616 L57.3481751,21.8712616 L57.3481751,11.6579437 L47.0606232,11.6579437 C40.9616852,11.6579437 36.0179137,16.6022492 36.0179137,22.7011872 L36.0179137,30.949707 L30.0749206,30.949707 L30.0749206,41.1624909 L36.0179137,41.1624909 L36.0179138,69.9967956 Z" id="Path" fill="#FFFFFF"></path>
        </g>
        <ellipse id="Oval" fill-opacity="0.78" fill="#000000" filter="url(#filter-19)" cx="102" cy="121.5" rx="26" ry="1.5"></ellipse>
    </g>
</svg>